# xmcd
#
# Track frame offsets:
#	150
#	14742
#	35089
#	51101
#	84095
#
# Disc length: 1297 seconds
#
# Revision: 0
# Processed by: cddbd v1.4PL0 Copyright (c) Steve Scherf et al.
# Submitted via: dBpowerAMP V4.0
#
DISCID=37050f05
DTITLE=Shane Murphy Trio - Shane Murphy Trio
DYEAR=1900
DGENRE=Blues
TTITLE0=Twisted
TTITLE1=Charity
TTITLE2=Penelope (The Rock)
TTITLE3=Karma Killer
TTITLE4=Some Mo' Wine
EXTD=
EXTT0=
EXTT1=
EXTT2=
EXTT3=
EXTT4=
PLAYORDER=
